<?xml version="1.0" encoding="iso-8859-1"?>
<!-- Generator: Adobe Illustrator 19.0.0, SVG Export Plug-In . SVG Version: 6.00 Build 0)  -->
<svg xmlns="http://www.w3.org/2000/svg" xmlns:xlink="http://www.w3.org/1999/xlink" version="1.1" id="Layer_1" x="0px" y="0px" viewBox="0 0 491.384 491.384" style="enable-background:new 0 0 491.384 491.384;" xml:space="preserve" width="512" height="512">
<g>
	<path style="fill:#BCE6F5;" d="M490.692,246.384c0,19.43-2.26,38.33-6.54,56.45c-9.02,38.25-27,73.03-51.61,102.02   c-31.37,36.95-73.5,64.48-121.56,77.74c-20.78,5.73-42.68,8.79-65.29,8.79c-1.66,0-3.31-0.02-4.97-0.05   c-11.82-0.23-23.43-1.31-34.79-3.17c-0.36-0.05-0.71-0.11-1.06-0.17c-12.78-2.14-25.23-5.27-37.25-9.32   c-13.94-4.68-27.33-10.59-40.02-17.59c-10.33-5.69-20.21-12.12-29.57-19.2c-7.29-5.51-14.26-11.42-20.88-17.7   c-19.32-18.31-35.66-39.75-48.2-63.49c-18.05-34.12-28.26-73.02-28.26-114.31c0-22.02,2.91-43.36,8.36-63.67   c11.97-44.63,36.24-84.22,68.94-114.93c35.86-33.69,81.85-56.69,132.91-63.94c11.37-1.62,22.98-2.46,34.79-2.46   c42.66,0,82.76,10.9,117.69,30.07c25.87,14.19,48.9,32.92,68.01,55.12c14.48,16.79,26.71,35.57,36.23,55.88   c5.38,11.46,9.89,23.41,13.46,35.76C487.342,199.854,490.692,222.724,490.692,246.384z"/>
	<path style="fill:#D12C50;" d="M432.542,404.854c-31.37,36.95-73.5,64.48-121.56,77.74c-1.51-147.33-1.12-294.65,1.17-441.98   c17.07-5.37,34.15-8.43,51.23-9.16c22.45-0.97,44.9,2.09,67.36,9.16c0.24,15.32,0.46,30.64,0.65,45.96   C432.762,192.664,433.142,298.764,432.542,404.854z"/>
	<g>
		<rect x="323.885" y="53.645" style="fill:#FFA733;" width="93.828" height="12.069"/>
		<rect x="323.885" y="77.36" style="fill:#FFA733;" width="93.828" height="12.069"/>
		<rect x="323.885" y="101.074" style="fill:#FFA733;" width="93.828" height="12.069"/>
		<rect x="323.885" y="124.789" style="fill:#FFA733;" width="93.828" height="12.069"/>
		<rect x="323.885" y="148.503" style="fill:#FFA733;" width="93.828" height="12.069"/>
		<rect x="323.885" y="172.218" style="fill:#FFA733;" width="93.828" height="12.069"/>
	</g>
	<path style="fill:#2589A0;" d="M484.152,302.834c-5.98,25.39-15.92,49.25-29.12,70.9c-1.23,2.03-2.5,4.04-3.79,6.03   c-2.76,4.24-5.65,8.4-8.66,12.45c-4.96,6.69-10.26,13.11-15.87,19.25c-0.83,0.92-1.67,1.83-2.52,2.73   c-5.21,5.55-10.69,10.85-16.4,15.89c-1.3,1.16-2.63,2.3-3.96,3.43c-6.65,5.63-13.61,10.91-20.85,15.81   c-10.33,7.01-21.22,13.24-32.6,18.62c-0.01,0-0.01,0.01-0.02,0.01c-18.6,8.81-38.48,15.34-59.29,19.23   c-14.71,2.76-29.88,4.2-45.38,4.2c-13.91,0-27.54-1.16-40.82-3.39c-0.01-0.27-0.02-0.54-0.03-0.81   c-0.26-6.41-0.49-12.83-0.71-19.24c-0.22-6.21-0.42-12.41-0.6-18.62c-0.2-6.41-0.37-12.83-0.53-19.24   c-0.16-6.21-0.29-12.41-0.42-18.62c-0.13-6.42-0.24-12.83-0.33-19.25c-0.1-6.2-0.17-12.41-0.24-18.62   c-0.06-6.41-0.11-12.82-0.14-19.24c-0.03-6.2-0.05-12.41-0.05-18.62c0-6.42,0.01-12.83,0.05-19.24c0.02-6.21,0.07-12.41,0.13-18.62   c0.06-6.41,0.14-12.82,0.24-19.24c0.09-6.2,0.19-12.41,0.31-18.62c0.13-6.41,0.27-12.82,0.43-19.24c0.15-6.2,0.32-12.41,0.51-18.62   c0.18-6.42,0.38-12.84,0.61-19.25c0.21-6.21,0.44-12.41,0.69-18.62c0.53-13.57,1.13-27.15,1.81-40.72   c87.01-8.55,174.01-8.92,261.02-1.11c3.97,0.35,7.93,0.72,11.89,1.11c0.58,11.55,1.1,23.1,1.57,34.65   C482.782,219.754,483.802,261.294,484.152,302.834z"/>
	<g>
		<rect x="177.82" y="184.288" style="fill:#151A1C;" width="277.208" height="18.621"/>
		<rect x="177.82" y="222.149" style="fill:#151A1C;" width="277.208" height="18.621"/>
		<rect x="177.82" y="260.011" style="fill:#151A1C;" width="277.208" height="18.621"/>
		<rect x="177.82" y="297.873" style="fill:#151A1C;" width="277.208" height="18.621"/>
		<rect x="177.82" y="335.735" style="fill:#151A1C;" width="277.208" height="18.621"/>
		<path style="fill:#151A1C;" d="M455.032,373.594v0.14c-1.23,2.03-2.5,4.04-3.79,6.03c-2.76,4.24-5.65,8.4-8.66,12.45h-264.76    v-18.62H455.032z"/>
		<path style="fill:#151A1C;" d="M426.712,411.464c-0.83,0.92-1.67,1.83-2.52,2.73c-5.21,5.55-10.69,10.85-16.4,15.89h-229.97    v-18.62H426.712z"/>
		<path style="fill:#151A1C;" d="M382.982,449.324c-10.33,7.01-21.22,13.24-32.6,18.62h-172.56v-18.62H382.982z"/>
		<path style="fill:#151A1C;" d="M291.072,487.184c-14.71,2.76-29.88,4.2-45.38,4.2c-13.91,0-27.54-1.16-40.82-3.39    c-0.01-0.27-0.02-0.54-0.03-0.81H291.072z"/>
	</g>
	<path style="fill:#304F75;" d="M240.722,491.334c-12.19-0.24-24.15-1.38-35.85-3.34c-49.05-8.23-93.16-31.03-127.72-63.81   c-1.4-118.8-1.11-237.6,0.84-356.4c0.32-19.48,0.69-38.97,1.1-58.45c43.94-10.21,87.87-12.05,131.81-5.49   c9.61,1.42,19.23,3.26,28.84,5.49C243.132,170.004,243.452,330.674,240.722,491.334z"/>
	<g>
		<rect x="92.955" y="31.817" style="fill:#BCE6F5;" width="132.923" height="17.593"/>
		<rect x="92.955" y="67.589" style="fill:#BCE6F5;" width="132.923" height="17.593"/>
		<rect x="92.955" y="103.361" style="fill:#BCE6F5;" width="132.923" height="17.593"/>
		<rect x="92.955" y="139.133" style="fill:#BCE6F5;" width="132.923" height="17.593"/>
		<rect x="92.955" y="174.905" style="fill:#BCE6F5;" width="132.923" height="17.593"/>
		<rect x="92.955" y="210.677" style="fill:#BCE6F5;" width="132.923" height="17.593"/>
		<rect x="92.955" y="246.448" style="fill:#BCE6F5;" width="132.923" height="17.593"/>
		<rect x="92.955" y="282.22" style="fill:#BCE6F5;" width="132.923" height="17.593"/>
		<rect x="92.955" y="317.992" style="fill:#BCE6F5;" width="132.923" height="17.593"/>
		<rect x="92.955" y="353.764" style="fill:#BCE6F5;" width="132.923" height="17.593"/>
		<rect x="92.955" y="389.536" style="fill:#BCE6F5;" width="132.923" height="17.593"/>
		<rect x="92.955" y="425.308" style="fill:#BCE6F5;" width="132.923" height="17.593"/>
		<path style="fill:#BCE6F5;" d="M225.882,461.084v17.59h-58.26c-13.94-4.68-27.33-10.59-40.02-17.59H225.882z"/>
	</g>
	<path style="fill:#F75454;" d="M98.032,441.884c-7.29-5.51-14.26-11.42-20.88-17.7c-15.74-14.92-29.51-31.92-40.85-50.55   c-2.58-4.23-5.03-8.54-7.35-12.94c-0.27-0.5-0.53-1-0.79-1.51c-2.38-4.57-4.61-9.22-6.7-13.95c-2.1-4.74-4.05-9.57-5.85-14.46   c-1.68-4.59-3.23-9.24-4.64-13.95c-1.43-4.76-2.71-9.57-3.86-14.45c-1.07-4.6-2.02-9.25-2.83-13.95   c-0.82-4.77-1.51-9.59-2.05-14.46c-0.52-4.61-0.91-9.26-1.16-13.94c-0.25-4.51-0.38-9.06-0.38-13.64c0-0.27,0-0.55,0.01-0.82   c0.01-4.68,0.15-9.34,0.44-13.95c0.28-4.86,0.71-9.68,1.28-14.46c1.4-11.75,3.63-23.25,6.63-34.44   c29.36-0.06,58.72,1.55,88.08,4.83C100.852,272.324,101.152,357.104,98.032,441.884z"/>
	<g>
		<path style="fill:#FFE05C;" d="M86.962,217.154v14.46H1.142c0.28-4.86,0.71-9.68,1.28-14.46H86.962z"/>
		<path style="fill:#FFE05C;" d="M86.962,245.564v14.46H1.072c-0.25-4.51-0.38-9.06-0.38-13.64c0-0.27,0-0.55,0.01-0.82H86.962z"/>
		<path style="fill:#FFE05C;" d="M86.962,273.964v14.46H4.282c-0.82-4.77-1.51-9.59-2.05-14.46H86.962z"/>
		<path style="fill:#FFE05C;" d="M86.962,302.374v14.45h-75.99c-1.43-4.76-2.71-9.57-3.86-14.45H86.962z"/>
		<path style="fill:#FFE05C;" d="M86.962,330.774v14.46h-65.5c-2.1-4.74-4.05-9.57-5.85-14.46H86.962z"/>
		<path style="fill:#FFE05C;" d="M86.962,359.184v14.45h-50.66c-2.58-4.23-5.03-8.54-7.35-12.94c-0.27-0.5-0.53-1-0.79-1.51H86.962z    "/>
	</g>
	<path style="fill:#2F373B;" d="M205.932,488.164c-0.36-0.05-0.71-0.11-1.06-0.17c-8.91-1.5-17.66-3.48-26.22-5.91c0,0,0,0-0.01,0   c-15.35-4.35-30.08-10.17-44.03-17.29c-10.5-5.34-20.56-11.42-30.11-18.18c-7.7-5.43-15.07-11.3-22.08-17.59   c-1.78-1.58-3.54-3.2-5.27-4.84c-4.52-4.28-8.87-8.73-13.05-13.34c-3.79-4.18-7.43-8.49-10.92-12.92   c-9.15-11.61-17.28-24.06-24.23-37.23c0.06-44.58,1.07-89.16,3.02-133.73c57.78-6.45,115.55-6.45,173.32,0   C209.112,314.034,209.332,401.094,205.932,488.164z"/>
	<g>
		<path style="fill:#151A1C;" d="M176.377,267.755H60.9c-4.818,0-8.723-3.906-8.723-8.723v-0.146c0-4.818,3.906-8.723,8.723-8.723    h115.476c4.818,0,8.723,3.906,8.723,8.723v0.146C185.1,263.85,181.194,267.755,176.377,267.755z"/>
		<path style="fill:#151A1C;" d="M176.377,303.527H60.9c-4.818,0-8.723-3.906-8.723-8.723v-0.146c0-4.818,3.906-8.723,8.723-8.723    h115.476c4.818,0,8.723,3.906,8.723,8.723v0.146C185.1,299.622,181.194,303.527,176.377,303.527z"/>
		<path style="fill:#151A1C;" d="M176.377,339.299H60.9c-4.818,0-8.723-3.905-8.723-8.723v-0.146c0-4.818,3.906-8.723,8.723-8.723    h115.476c4.818,0,8.723,3.906,8.723,8.723v0.146C185.1,335.393,181.194,339.299,176.377,339.299z"/>
		<path style="fill:#151A1C;" d="M176.377,375.071H60.9c-4.818,0-8.723-3.905-8.723-8.723v-0.146c0-4.818,3.906-8.723,8.723-8.723    h115.476c4.818,0,8.723,3.905,8.723,8.723v0.146C185.1,371.165,181.194,375.071,176.377,375.071z"/>
		<path style="fill:#151A1C;" d="M185.102,401.974v0.15c0,4.81-3.91,8.72-8.73,8.72H64.102c-3.79-4.18-7.43-8.49-10.92-12.92    c1.45-2.78,4.36-4.67,7.72-4.67h115.47C181.192,393.254,185.102,397.154,185.102,401.974z"/>
		<path style="fill:#151A1C;" d="M185.102,437.744v0.15c0,4.81-3.91,8.72-8.73,8.72h-71.87c-7.7-5.43-15.07-11.3-22.08-17.59h93.95    C181.192,429.024,185.102,432.924,185.102,437.744z"/>
		<path style="fill:#151A1C;" d="M185.102,473.514v0.15c0,4.03-2.73,7.42-6.45,8.42c0,0,0,0-0.01,0    c-15.35-4.35-30.08-10.17-44.03-17.29h41.76C181.192,464.794,185.102,468.704,185.102,473.514z"/>
	</g>
	<g>
		<path style="fill:#F75454;" d="M321.483,453.14l82.562-143.001c36.694-63.556-9.173-143.001-82.561-143.001h0    c-73.388,0-119.255,79.445-82.561,143.001L321.483,453.14z"/>
		<path style="fill:#BCE6F5;" d="M371.148,262.469c0,23.39-16.17,43-37.94,48.27c-3.76,0.92-7.69,1.4-11.73,1.4    c-27.42,0-49.66-22.24-49.66-49.67c0-27.42,22.24-49.66,49.66-49.66c4.04,0,7.97,0.48,11.73,1.4    C354.978,219.479,371.148,239.089,371.148,262.469z"/>
		<path style="fill:#FFFFFF;" d="M371.148,262.469c0,23.39-16.17,43-37.94,48.27c-21.77-5.27-37.93-24.88-37.93-48.27    c0-23.38,16.16-42.99,37.93-48.26C354.978,219.479,371.148,239.089,371.148,262.469z"/>
	</g>
</g>















</svg>
