<svg height="512pt" viewBox="-6 0 512 512" width="512pt" xmlns="http://www.w3.org/2000/svg"><path d="m3.578125 269.386719c-5.707031-73.914063 35.796875-145.167969 52.511719-165.707031 45.992187-56.503907 116.132812-92.5625 194.695312-92.4375 138.351563.21875 251.878906 115.601562 249.949219 253.941406-1.113281 79.769531-39.539063 150.511718-98.605469 195.585937-7.988281 6.097657-17.796875 9.332031-27.84375 9.332031h-249.941406c-8.597656 0-16.976562-2.765624-23.863281-7.914062-1.460938-1.09375-2.910157-2.199219-4.34375-3.324219-30.628907-23.984375-86.292969-108.332031-92.558594-189.476562zm0 0" fill="#89e9d9"/><path d="m250.378906 512c-58.183594 0-111.726562-19.847656-154.242187-53.140625h308.484375c-42.511719 33.292969-96.058594 53.140625-154.242188 53.140625zm0 0" fill="#08b772"/><path d="m336.203125 468.398438c.382813 5.953124-4.328125 10.898437-10.199219 10.898437h-111.8125c-5.484375 0-7.117187 7.460937-2.136718 9.757813 22.28125 10.289062 46.335937 17.398437 71.574218 20.746093-10.878906 1.445313-21.976562 2.199219-33.25 2.199219-58.183594 0-111.726562-19.847656-154.242187-53.140625h229.519531c5.441406 0 10.195312 4.105469 10.546875 9.539063zm0 0" fill="#06995f"/><path d="m450.683594 103.6875h-94.019532v-56.675781c0-19.722657-16.046874-35.769531-35.769531-35.769531h-183.953125c-19.722656 0-35.765625 16.046874-35.765625 35.769531v56.675781h-45.074219c-35.066406 43.085938-56.101562 98.050781-56.101562 157.933594 0 68.625 27.628906 130.785156 72.347656 176.011718.339844.34375 2.605469 2.601563 3.007813 2.996094 6.988281 6.835938 14.371093 13.269532 22.117187 19.25h6.554688c4.398437 0 8.304687-2.8125 9.695312-6.988281l4.484375-13.449219h312.035157c22.578124 0 40.878906-18.300781 40.878906-40.878906v-274.4375c0-11.285156-9.148438-20.4375-20.4375-20.4375zm-206.4375 0h-112.414063v-56.675781c0-2.820313 2.292969-5.113281 5.109375-5.113281h183.953125c2.816407 0 5.109375 2.292968 5.109375 5.113281v56.675781zm0 0" fill="#fd5757"/><path d="m471.121094 124.125v274.4375c0 22.578125-18.300782 40.878906-40.875 40.878906h-25.890625l-4.484375 13.449219c-1.390625 4.175781-5.296875 6.988281-9.695313 6.988281h-36.367187c-4.398438 0-8.304688-2.8125-9.695313-6.988281l-4.484375-13.449219h-228.242187c-5.671875 0-11.078125-2.367187-14.960938-6.503906-42.046875-44.785156-67.8125-105.039062-67.8125-171.316406 0-20.171875.785157-39.785156 3.15625-58.574219.640625-5.085937 5.007813-8.875 10.132813-8.875h33.722656c2.820312 0 5.109375 2.289063 5.109375 5.109375v5.109375c0 5.644531 4.574219 10.21875 10.21875 10.21875h51.097656c5.644531 0 10.21875-4.574219 10.21875-10.21875v-5.109375c0-2.820312 2.289063-5.109375 5.113281-5.109375h143.074219c2.820313 0 5.109375 2.289063 5.109375 5.109375v5.109375c0 5.644531 4.574219 10.21875 10.21875 10.21875h51.097656c5.644532 0 10.21875-4.574219 10.21875-10.21875v-5.109375c0-2.820312 2.289063-5.109375 5.109376-5.109375h61.316406c2.824218 0 5.113281-2.289063 5.113281-5.109375v-10.21875c0-2.824219-2.289063-5.109375-5.113281-5.109375h-393.078125c-6.882813 0-11.804688-6.675781-9.769531-13.25 6.359374-20.527344 15.847656-39.609375 29.835937-56.796875h380.164063c11.292968 0 20.441406 9.152344 20.441406 20.4375zm0 0" fill="#fd7a7a"/><path d="m301.476562 316.804688c0 39.511718-32.027343 71.539062-71.535156 71.539062-39.511718 0-71.539062-32.027344-71.539062-71.539062 0-39.507813 32.027344-71.535157 71.539062-71.535157 39.507813 0 71.535156 32.027344 71.535156 71.535157zm0 0" fill="#fd4343"/><path d="m310.929688 51.097656h-163.769532c-8.464844 0-15.328125-6.863281-15.328125-15.328125v-20.441406c0-8.464844 6.863281-15.328125 15.328125-15.328125h163.769532c8.464843 0 15.328124 6.863281 15.328124 15.328125v20.441406c0 8.464844-6.859374 15.328125-15.328124 15.328125zm0 0" fill="#d2443f"/><path d="m310.929688 30.660156h-134.003907c-8.464843 0-15.328125-6.863281-15.328125-15.332031 0-8.464844 6.863282-15.328125 15.328125-15.328125h134.003907c8.464843 0 15.328124 6.863281 15.328124 15.328125 0 8.46875-6.859374 15.332031-15.328124 15.332031zm0 0" fill="#dd5c56"/><path d="m301.476562 301.476562v30.660157c0 5.644531-4.574218 10.21875-10.21875 10.21875h-36.664062v35.769531c0 5.644531-4.574219 10.21875-10.21875 10.21875h-30.660156c-5.640625 0-10.21875-4.574219-10.21875-10.21875v-35.769531h-34.875c-5.644532 0-10.21875-4.574219-10.21875-10.21875v-30.660157c0-5.644531 4.574218-10.21875 10.21875-10.21875h34.875v-35.769531c0-5.644531 4.578125-10.21875 10.21875-10.21875h30.660156c5.644531 0 10.21875 4.574219 10.21875 10.21875v35.769531h36.664062c5.644532 0 10.21875 4.574219 10.21875 10.21875zm0 0" fill="#fde5bd"/><path d="m301.476562 301.476562v30.660157c0 5.644531-4.574218 10.21875-10.21875 10.21875h-36.664062v.703125c-25.121094-6.617188-44.832031-26.550782-51.132812-51.800782h.035156v-34.902343c.621094-2.464844 1.367187-4.878907 2.234375-7.234375 1.875-2.34375 4.753906-3.851563 7.984375-3.851563h30.660156c5.644531 0 10.21875 4.574219 10.21875 10.21875v35.769531h36.664062c5.644532 0 10.21875 4.574219 10.21875 10.21875zm0 0" fill="#fff5f5"/></svg>